<svg id="Capa_1" data-name="Capa 1" xmlns="http://www.w3.org/2000/svg" viewBox="0 0 1920 1080"><defs><style>.cls-1{fill:#10151b;}</style></defs><path class="cls-1" d="M1070.26,770.28c-1.18-34,18.13-68,50.81-89.63s78-30.26,119.3-22.81c35.66,6.44,66.59,23.74,100.34,35,102.91,34.38,244,16.37,276.75-47.07,20-38.78,1.18-97.17,21.25-103.19,8.16-2.45,13.26,6.63,23.62,4.31,20.39-4.57,36.87-47.93,24.62-79.19-11.13-28.37-42.83-39.83-59.94-46.08-45.81-16.72-69.74-.68-84-18-15.58-18.86-4.63-58.95,17.54-81.36,19.81-20,45.33-22.65,51.8-23.22,21.88-1.94,36.79,5.35,54.18,11.7,3.07,1.12,67.43,25.08,118.4,17.28,46.35-7.1,99.3-43.12,106-90,3.57-25-5.1-60-27.7-72.21-7.64-4.14-15.66-5-27.11-6.27-24.44-2.68-32.57,3.34-50.43,2.16-4.44-.29-38-2.37-48.69-20.94-13-22.46,10.69-63.46,40.65-83.46,29.31-19.58,62.11-17.34,84.05-15.84,58.59,4,71.37,31,106,26.64,48.29-6.13,90.49-58,99-97.56,17.47-80.89-88.06-192.52-269.82-265.68-74.81-1.13-161.44-28.67-230.07-52.6-69.51-24.24-134.08-59.8-208.44-71.55-84.36-13.32-171.51,5.69-251.07,31.86s-155.78,59.74-238.81,77.65c-127.17,27.42-266.85,15.47-384-32.86C371.34-389.3,271.29-470.11,144.16-472.8,86.56-474,30-458.24-19.89-435-182.84-359-275.61-196.68-241-47.93c18.93,81.5,87.81,169.12,149.34,167.44,31.24-.85,40.47-24.21,95.46-31.23,16-2,61.55-7.26,107.52,16.34,3.23,1.66,69.61,36.53,64.2,72.22-1.48,9.79-16.36,23.22-46,49.68-23.88,21.28-26.59,21.4-37.28,32.4-11.36,11.7-32.32,33.28-41.66,64.8-15.77,53.19,11.93,99.54,13.16,101.52,25.76,41.62,67.93,53.41,85.51,58.32,12.19,3.41,61.17,17.1,105.25-6.48,21.17-11.33,18.27-19,48.24-45.36,30.68-27,69.85-61.47,111.82-54,21.67,3.86,48.37,19.66,54.82,43.2,9.49,34.66-34.28,51.89-37.28,97.2-3.25,49.16,43.83,95.94,83.32,116.64C567.5,662.1,625.68,654,655.66,649.88c46.78-6.49,75.06-22,125.08-12.36,10.36,2,24.94,10.23,43.71,14.31,65.65,14.3,104.61,80.63,76.58,130.41,36.11,14.88,77,18.47,117.25,14.66,7-.66,14.13-1.67,20.06-4.68C1049.81,786.39,1057.26,773.41,1070.26,770.28Z"/><path class="cls-1" d="M281.48,595.35c-17.36-36.3-19.92-57-19.44-64.12,3-44.26,50.43-89.11,86.4-82.23,13.79,2.64,29.39,13.55,33.48,28.08,4.81,17.07-10.26,25-8.64,44.28,2.52,29.88,41.7,45.26,37.8,53.2-3.75,7.63-34.13-9.54-60.48,0-31.9,11.55-30.22,53.77-45.36,53.72C303.16,628.27,296.83,627.46,281.48,595.35Z"/><path class="cls-1" d="M10,129.32c5.42-6.22,18.21-23,37.44-24.48,16.72-1.27,33.78,9.4,33.12,15.84-.57,5.64-14.29,3.92-21.6,14.4-6.59,9.44-6.21,26.32,3.89,35.9,6.72,6.38,18.79,10.49,24.91,5.86,6.8-5.14-.63-17.18,8.09-32,1.86-3.15,5-8.55,10.87-10.76,15.11-5.74,38.83,13.47,37,25.44-1.15,7.37-11.09,6.11-22.08,18-13.43,14.54-4.7,25.45-17.28,36.72-18.15,16.27-34.9,7.27-44,22.65-3.46,5.85-5.75,13.82-14.66,21.87a27.66,27.66,0,0,1-6.86,4.44C1.15,281-45.55,228.44-68.44,246c-14.66,11.22-2.71,38.26-13,43.2-19.65,9.48-97.69-72.1-79.92-108C-143,144.22-37,183.36,10,129.32Z"/><path class="cls-1" d="M1750.28,561.32c-6.26-42.68,16.67-56,6.48-88.56-10.5-33.59-39.45-34-41-58.32-2-30.58,41.28-68.43,86.4-71.28,50-3.16,83.33,37.9,92.88,49.68,36.84,45.43,44.74,112.86,25,125.28-16.19,10.19-45.25-20.24-59.56-8.64-11.4,9.24,4,31-4.32,60.48-8.85,31.3-41.73,61.84-67,56.16C1759.39,619.42,1750.77,564.68,1750.28,561.32Z"/><path class="cls-1" d="M1996.52,133.64c-17.93-20.62-28.13-32.36-45.36-36.72-13.61-3.44-35.9-3.36-47.52,10.8-9.56,11.66-7.44,27.43-6.48,34.56,4.42,32.85,28.15,37.44,34.56,62.64,9.94,39.08-36.63,69.32-25.92,84.24,9.53,13.29,57,4,86.4-23.76,26.48-25,41-67.34,28.08-99.36C2016.47,156.59,2009.82,148.94,1996.52,133.64Z"/><path class="cls-1" d="M146.12,513.8c-3.94,3.65.52,10.59-4.68,16.2-4.4,4.75-9.72,2.08-14.7,7-4.16,4.14-6.43,12-3.66,15.64,4.94,6.55,25.37-.87,37.44-7.2,7.25-3.8,19.28-10.11,18.72-17.28C178.38,517.17,153,507.44,146.12,513.8Z"/><path class="cls-1" d="M26.6,444.68c.14-3.95.19-12.1,5.76-15.84,4.24-2.85,10.92-2.67,15.48.36,8.39,5.58,3.46,16.73,12.6,24.84,5.91,5.24,11.34,3.58,12.6,7.56,2.08,6.6-12.59,11.89-13.32,22.68-.81,12.08,16.71,18.69,14.76,23.4-2.87,6.94-44.74,1.78-47.88-12.6-1.5-6.89,7.38-9.29,7.92-20.88C35.07,462.3,26.12,458.6,26.6,444.68Z"/><path class="cls-1" d="M1743.8,625c-20.92,6.24-35.58,48.53-21.6,62.64,8.68,8.77,29.35,5.81,41-4.32,2.06-1.78,11.34-9.82,10.08-18.84-1.1-7.86-9.08-8.38-12-18.24-2.72-9.18,2.45-14.64-1.32-19.08C1756.46,623,1748.34,623.69,1743.8,625Z"/><path class="cls-1" d="M1608.8,698.48c-2.37-12.82,33.54-39.47,57.24-29.16,10.77,4.68,15.81,15.6,16.56,17.28,4.84,10.85,4.38,25.15-.36,27-5.8,2.26-13-16.06-25.08-15-7.31.64-8.25,7.68-17,10.68C1628,713.43,1610.3,706.61,1608.8,698.48Z"/><path class="cls-1" d="M1614.92,324.44c-15.21-4.36-39.77,7-40.68,24.12-.73,13.7,13.91,27.66,22.32,25.92,5.9-1.22,6.53-9.72,13.68-10.8s11.34,6.44,15.48,4.32c3.36-1.72,4.75-8.83,2.16-13.32-4.42-7.65-19.09-5.23-19.44-8.64-.42-4.07,16.94-6.47,17.28-13C1625.91,329.36,1619.66,325.8,1614.92,324.44Z"/><path class="cls-1" d="M1851.08,83.24c-.26-8.56-15.37-17.21-28.44-19.08-14.65-2.09-33.73,3.33-43.92,19.44-7.2,11.38-11.4,30.39-.79,44,8.62,11.1,25.38,16.56,35.35,11.4,6.17-3.19,5.08-8,13.32-14,5.8-4.23,16.93-9.54,24.72-5.76,10.74,5.21,8.35,24.42,12.07,24.55,5.52.19,13.78-39.11,5.69-42.79-4.23-1.92-10.71,6.87-15.6,4.08-3.9-2.22-3.85-10.14-3.84-11.52C1849.68,87.93,1851.17,86.19,1851.08,83.24Z"/></svg>