<svg id="visual" viewBox="0 0 1600 300" width="1600" height="300" xmlns="http://www.w3.org/2000/svg" xmlns:xlink="http://www.w3.org/1999/xlink" version="1.1"><path d="M0 113L29.7 117.7C59.3 122.3 118.7 131.7 178 131C237.3 130.3 296.7 119.7 355.8 111.5C415 103.3 474 97.7 533.2 102.7C592.3 107.7 651.7 123.3 711 134.3C770.3 145.3 829.7 151.7 889 142.8C948.3 134 1007.7 110 1066.8 99C1126 88 1185 90 1244.2 101.5C1303.3 113 1362.7 134 1422 137.7C1481.3 141.3 1540.7 127.7 1570.3 120.8L1600 114L1600 0L1570.3 0C1540.7 0 1481.3 0 1422 0C1362.7 0 1303.3 0 1244.2 0C1185 0 1126 0 1066.8 0C1007.7 0 948.3 0 889 0C829.7 0 770.3 0 711 0C651.7 0 592.3 0 533.2 0C474 0 415 0 355.8 0C296.7 0 237.3 0 178 0C118.7 0 59.3 0 29.7 0L0 0Z" fill="#1b232d" stroke-linecap="round" stroke-linejoin="miter"></path></svg>